<?xml version="1.0" encoding="iso-8859-1"?>
<!-- Generator: Adobe Illustrator 16.0.0, SVG Export Plug-In . SVG Version: 6.00 Build 0)  -->
<!DOCTYPE svg PUBLIC "-//W3C//DTD SVG 1.1//EN" "http://www.w3.org/Graphics/SVG/1.1/DTD/svg11.dtd">
<svg version="1.1" id="Capa_1" xmlns="http://www.w3.org/2000/svg" xmlns:xlink="http://www.w3.org/1999/xlink" x="0px" y="0px"
	 width="386.588px" height="386.588px" viewBox="0 0 386.588 386.588" style="enable-background:new 0 0 386.588 386.588;"
	 xml:space="preserve">
<g>
	<path d="M337.163,143.29c-18.542-51.146-64.686-88.415-118.586-97.445c-0.896-0.328-1.852-0.584-2.941-0.642
		c-0.676-0.037-1.395-0.031-2.076-0.061c-6.662-0.892-13.421-1.446-20.265-1.446c-64.393,0-122.48,40.597-143.875,99.595
		C22.116,143.604,0,165.911,0,193.291s22.116,49.69,49.419,50.001c21.388,58.998,79.482,99.601,143.875,99.601
		c64.387,0,122.477-40.603,143.869-99.601c27.304-0.311,49.426-22.621,49.426-50.001S364.472,143.609,337.163,143.29z
		 M336.584,224.586c-1.353,0-2.826-0.128-4.641-0.384l-7.958-1.175l-2.345,7.702c-16.781,55.022-69.562,93.457-128.347,93.457
		c-58.788,0-111.575-38.435-128.353-93.469l-2.345-7.696l-7.961,1.169c-1.809,0.268-3.276,0.39-4.634,0.39
		c-17.26,0-31.295-14.042-31.295-31.301c0-17.26,14.036-31.295,31.295-31.295c1.373,0,2.844,0.125,4.613,0.387l7.977,1.19
		l2.351-7.712c11.38-37.305,39.32-66.935,74.443-82.182c-7.837,17.366,2.807,38.779,20.557,47.133
		c22.119,10.406,57.904,11.767,72.993-10.873c6.808-10.203,0.768-23.102-7.465-30.086c-11.521-9.77-28.254-11.161-41.933-5.73
		c-11.073,4.396-6.253,22.491,4.975,18.04c8.132-3.225,15.536-3.468,23.343,0.815c10.704,5.885,0.84,12.607-6.644,14.757
		c-13.95,4.009-34.532,0.737-45.438-9.051c-13.768-12.358,3.967-26.382,14.94-30.224c11.898-4.165,24.975-5.088,37.567-4.634
		c50.888,7.24,94.419,43.014,109.374,92.034l2.35,7.712l7.978-1.19c1.777-0.262,3.239-0.387,4.615-0.387
		c17.257,0,31.299,14.036,31.299,31.295C367.895,210.538,353.84,224.586,336.584,224.586z"/>
	<path d="M153.8,186.794c-16.082,0-16.082,24.938,0,24.938S169.887,186.794,153.8,186.794z"/>
	<path d="M232.782,185.235c-16.081,0-16.081,24.938,0,24.938C248.864,210.173,248.87,185.235,232.782,185.235z"/>
	<path d="M193.294,228.216c-20.277,0-36.782,16.495-36.782,36.771c0,5.176,4.184,9.354,9.353,9.354c5.17,0,9.353-4.178,9.353-9.354
		l0,0c0-9.961,8.104-18.066,18.076-18.066c9.962,0,18.073,8.105,18.073,18.066l0,0c0,5.176,4.177,9.354,9.353,9.354
		c5.164,0,9.354-4.178,9.354-9.354C230.073,244.711,213.571,228.216,193.294,228.216z"/>
</g>
<g>
</g>
<g>
</g>
<g>
</g>
<g>
</g>
<g>
</g>
<g>
</g>
<g>
</g>
<g>
</g>
<g>
</g>
<g>
</g>
<g>
</g>
<g>
</g>
<g>
</g>
<g>
</g>
<g>
</g>
</svg>
