<?xml version="1.0" encoding="iso-8859-1"?>
<!-- Generator: Adobe Illustrator 16.0.0, SVG Export Plug-In . SVG Version: 6.00 Build 0)  -->
<!DOCTYPE svg PUBLIC "-//W3C//DTD SVG 1.1//EN" "http://www.w3.org/Graphics/SVG/1.1/DTD/svg11.dtd">
<svg version="1.1" id="Capa_1" xmlns="http://www.w3.org/2000/svg" xmlns:xlink="http://www.w3.org/1999/xlink" x="0px" y="0px"
	 width="976.242px" height="976.242px" viewBox="0 0 976.242 976.242" style="enable-background:new 0 0 976.242 976.242;"
	 xml:space="preserve">
<g>
	<path d="M130.242,210.034l47.801-2.771c-11.076,26.514-15.938,53.715-14.433,80.959c1.958,35.446,15.004,70.896,37.727,102.516
		c1.807,2.515,3.609,4.91,5.392,7.199l-48.24,48.24l-22.627,22.627l22.628,22.627l43.973,43.973
		c-12.376,35.236-18.642,72.08-18.642,109.75c0,42.986,8.157,84.898,24.246,124.572c16.663,41.092,41.133,77.947,72.728,109.543
		c31.596,31.594,68.451,56.064,109.543,72.727c39.674,16.09,81.586,24.246,124.573,24.246c42.986,0,84.898-8.156,124.573-24.246
		c41.092-16.662,77.946-41.133,109.543-72.727c31.595-31.596,56.064-68.451,72.728-109.543C837.842,730.053,846,688.141,846,645.154
		s-8.157-84.898-24.246-124.574c-16.663-41.091-41.133-77.946-72.728-109.541c-31.596-31.596-68.451-56.065-109.543-72.729
		c-39.675-16.088-81.586-24.246-124.573-24.246c-37.67,0-74.514,6.266-109.75,18.643l-43.973-43.973l-22.629-22.628l-22.627,22.627
		l-45.606,45.607c-8.864-13.433-17.11-31.076-18.175-51.21c-0.697-13.177,1.724-26.629,7.212-40.288l30.982,39.867l15.407-58.802
		l9.767-37.276l36.245-13.087l57.175-20.644l-51.163-32.824L325.34,99.27l-1.246-38.515L322.129,0l-47.028,38.516l-29.811,24.416
		l-37.015-10.717l-58.389-16.906l22.098,56.628l14.009,35.898l-21.631,31.892L130.242,210.034z M294.112,61.725l1.756,54.279
		l45.709,29.325l-27.022,9.757l-24.057,8.686l-12.009,45.83l-1.756,6.703l-1.596-2.052l-19.145-24.634l-12.585-16.194L231.76,174.1
		l-37.747,2.188l-4.822,0.279l30.484-44.944l-19.742-50.591l52.164,15.104L294.112,61.725z M290.908,359.013l47.651-47.651
		l34.537,34.537c-19.994,9.462-38.883,20.863-56.544,34.117c-12.553,9.421-24.496,19.76-35.759,31.023
		c-9.989,9.988-19.26,20.506-27.803,31.514c-14.641,18.866-27.114,39.188-37.336,60.791l-34.537-34.538l47.022-47.022l21.225-21.225
		l20.316-20.316L290.908,359.013z M430.598,358.145c27.486-8.047,55.898-12.08,84.312-12.08c76.544,0,153.087,29.2,211.487,87.602
		c116.803,116.802,116.803,306.175,0,422.976c-58.4,58.402-134.943,87.602-211.487,87.602s-153.087-29.199-211.488-87.602
		c-80.08-80.08-105.248-194.27-75.521-295.799c1.678-5.732,3.541-11.418,5.569-17.061c1.964-5.463,4.088-10.881,6.38-16.246
		c14.568-34.1,35.748-66.046,63.572-93.871c27.824-27.825,59.772-49.004,93.871-63.572c5.365-2.292,10.784-4.416,16.248-6.38
		C419.18,361.686,424.868,359.823,430.598,358.145z M228.129,376.537c-15.716-20.945-32.457-51.81-34.565-89.97
		c-1.513-27.394,4.689-54.562,18.479-81.275l17.354-1.006l9.311,11.981c-12.181,22.811-17.722,45.693-16.517,68.448
		c1.547,29.233,14.105,53.769,26.54,71.219L228.129,376.537z"/>
</g>
<g>
</g>
<g>
</g>
<g>
</g>
<g>
</g>
<g>
</g>
<g>
</g>
<g>
</g>
<g>
</g>
<g>
</g>
<g>
</g>
<g>
</g>
<g>
</g>
<g>
</g>
<g>
</g>
<g>
</g>
</svg>
