<?xml version="1.0" encoding="iso-8859-1"?>
<!-- Generator: Adobe Illustrator 16.0.0, SVG Export Plug-In . SVG Version: 6.00 Build 0)  -->
<!DOCTYPE svg PUBLIC "-//W3C//DTD SVG 1.1//EN" "http://www.w3.org/Graphics/SVG/1.1/DTD/svg11.dtd">
<svg version="1.1" id="Capa_1" xmlns="http://www.w3.org/2000/svg" xmlns:xlink="http://www.w3.org/1999/xlink" x="0px" y="0px"
	 width="468.842px" height="468.842px" viewBox="0 0 468.842 468.842" style="enable-background:new 0 0 468.842 468.842;"
	 xml:space="preserve">
<g>
	<path d="M185.329,280.34c10.175-7.496,21.708-15.992,44.316-15.992s34.141,8.497,44.321,15.997
		c8.295,6.11,14.289,10.525,27.679,10.525c13.396,0,19.392-4.417,27.688-10.529c10.177-7.497,21.711-15.993,44.32-15.993
		c22.607,0,34.143,8.496,44.319,15.992c8.297,6.113,14.292,10.53,27.689,10.53c6.902,0,12.5-5.597,12.5-12.5s-5.598-12.5-12.5-12.5
		c-5.183,0-5.615-0.319-12.862-5.659c-11.279-8.309-28.324-20.863-59.146-20.863c-30.822,0-47.868,12.557-59.148,20.865
		c-7.246,5.338-7.68,5.657-12.86,5.657c-5.177,0-5.609-0.319-12.854-5.655c-11.279-8.311-28.323-20.867-59.146-20.867
		c-30.822,0-48.173,12.154-59.146,20.866c-6.245,4.958-7.679,5.504-12.854,5.656c-7.391,0.218-17.776-8.929-17.776-8.929
		l-16.777-96.853c2.452,1.631,4.715,3.297,6.871,4.885c8.296,6.112,14.291,10.528,27.683,10.528
		c13.394,0,19.388-4.416,27.684-10.529c10.175-7.496,21.708-15.992,44.316-15.992c22.606,0,34.14,8.496,44.321,15.996
		c8.295,6.11,14.288,10.525,27.679,10.525c13.395,0,19.39-4.416,27.688-10.528c10.177-7.497,21.712-15.993,44.32-15.993
		c22.607,0,34.143,8.496,44.319,15.992c8.297,6.113,14.292,10.529,27.688,10.529c6.902,0,12.5-5.597,12.5-12.5
		c0-6.903-5.598-12.5-12.5-12.5c-5.183,0-5.615-0.319-12.862-5.658c-11.279-8.308-28.324-20.863-59.146-20.863
		c-30.822,0-47.868,12.556-59.149,20.865c-7.246,5.337-7.679,5.656-12.86,5.656c-5.177,0-5.609-0.319-12.856-5.657
		c-11.278-8.309-28.323-20.864-59.143-20.864c-30.822,0-47.866,12.556-59.146,20.865c-7.243,5.337-7.677,5.577-12.855,5.656
		c-5.558,0.085-7.989-2.164-12.855-5.656c-6.4-4.594-14.979-11.021-27.014-15.443L97.155,10.366C96.117,4.375,90.919,0,84.839,0
		h-61.66c-6.903,0-12.5,5.597-12.5,12.5v443.842c0,6.903,5.597,12.5,12.5,12.5h138.546c3.688,0,7.188-1.629,9.563-4.451
		c2.375-2.82,3.383-6.548,2.753-10.183l-7.975-46.036c7.945-1.483,12.94-5.149,19.264-9.809
		c10.174-7.497,21.705-15.994,44.315-15.994c22.605,0,34.137,8.496,44.317,15.994c8.296,6.111,14.29,10.527,27.683,10.527
		c13.396,0,19.392-4.416,27.689-10.527c10.175-7.497,21.708-15.994,44.32-15.994c22.611,0,34.145,8.497,44.319,15.995
		c8.297,6.11,14.291,10.526,27.688,10.526c6.903,0,12.5-5.597,12.5-12.5c0-6.902-5.597-12.5-12.5-12.5
		c-5.184,0-5.617-0.318-12.86-5.654c-11.277-8.311-28.322-20.867-59.148-20.867c-30.827,0-47.871,12.558-59.147,20.866
		c-7.246,5.337-7.679,5.655-12.861,5.655c-5.178,0-5.611-0.318-12.857-5.659c-11.278-8.308-28.322-20.862-59.142-20.862
		c-30.827,0-47.869,12.558-59.145,20.867c-4.729,3.482-6.557,4.822-8.695,5.338l-16.343-94.346c3.391,1.047,7.29,1.642,12.183,1.642
		C171.04,290.87,177.034,286.453,185.329,280.34z M146.873,443.842H35.679V25h38.639L146.873,443.842z"/>
</g>
<g>
</g>
<g>
</g>
<g>
</g>
<g>
</g>
<g>
</g>
<g>
</g>
<g>
</g>
<g>
</g>
<g>
</g>
<g>
</g>
<g>
</g>
<g>
</g>
<g>
</g>
<g>
</g>
<g>
</g>
</svg>
