<?xml version="1.0" encoding="iso-8859-1"?>
<!-- Generator: Adobe Illustrator 18.0.0, SVG Export Plug-In . SVG Version: 6.00 Build 0)  -->
<!DOCTYPE svg PUBLIC "-//W3C//DTD SVG 1.1//EN" "http://www.w3.org/Graphics/SVG/1.1/DTD/svg11.dtd">
<svg version="1.1" id="Capa_1" xmlns="http://www.w3.org/2000/svg" xmlns:xlink="http://www.w3.org/1999/xlink" x="0px" y="0px"
	 viewBox="0 0 228.265 228.265" style="enable-background:new 0 0 228.265 228.265;" xml:space="preserve">
<g>
	<path d="M224.847,10.892c-12.377-7.378-30.542-8.638-48.592-3.373c-9.954,2.903-18.898,7.503-26.049,13.295
		c-9.219-9.892-22.164-15.603-36.074-15.603c-13.912,0-26.859,5.712-36.075,15.603C70.906,15.022,61.964,10.421,52.01,7.519
		C33.96,2.255,15.795,3.516,3.418,10.892c-3.154,1.879-4.32,5.876-2.671,9.156c6.471,12.873,21.11,23.701,39.162,28.967
		c3.202,0.934,6.418,1.662,9.627,2.189c-1.245,3.481-1.928,7.228-1.928,11.131c0,5.292,1.291,10.387,3.598,14.937
		c-0.704,1.776-1.335,3.572-1.913,5.38c-13.255,15.429-20.695,35.231-20.695,55.772c0,23.435,9.537,44.812,24.997,60.341v18.194
		c0,3.866,3.134,7,7,7s7-3.134,7-7v-6.805c11.948,7.785,25.965,12.684,41.096,13.635c1.78,0.112,3.554,0.167,5.326,0.167
		c16.646-0.001,32.816-4.928,46.654-14.001v7.004c0,3.866,3.134,7,7,7s7-3.134,7-7V198.52c0.284-0.287,0.58-0.558,0.861-0.849
		c17.535-18.173,26.18-42.869,23.719-67.757c-1.736-17.557-8.846-33.981-20.263-47.241c-0.582-1.814-1.218-3.617-1.926-5.401
		c2.307-4.55,3.597-9.645,3.597-14.938c0-3.904-0.683-7.65-1.928-11.132c3.209-0.527,6.425-1.256,9.628-2.19
		c18.051-5.265,32.69-16.093,39.161-28.966C229.167,16.768,228.001,12.771,224.847,10.892z M115.419,176.489
		c-0.05,0.012-0.1,0.024-0.15,0.038c-0.623,0.033-1.65,0.033-2.273,0c-0.05-0.014-0.1-0.026-0.15-0.038
		c-20.455-5.021-37.341-18.757-46.432-37.384c10.502-15.983,28.474-25.779,47.719-25.779c19.245,0,37.217,9.795,47.719,25.779
		C152.761,157.731,135.874,171.468,115.419,176.489z M80.77,43.173c2.439,0,4.786,0.442,7.003,1.316
		c1.278,3.145,1.924,6.479,1.924,9.941c0,11.306-7.143,21.271-17.629,24.982c-6.335-3.24-10.46-9.853-10.46-17.078
		C61.608,51.769,70.204,43.173,80.77,43.173z M166.657,62.335c0,7.226-4.125,13.838-10.46,17.078
		c-10.487-3.711-17.629-13.677-17.629-24.982c0-3.463,0.646-6.797,1.924-9.941c2.217-0.874,4.564-1.316,7.003-1.316
		C158.061,43.173,166.657,51.769,166.657,62.335z M139.72,30.099c-2.58,0.621-5.082,1.546-7.438,2.763
		c-1.402,0.646-2.578,1.751-3.304,3.175c-2.885,5.651-4.41,12.012-4.41,18.394c0,18.454,12.462,34.575,30.306,39.204
		c0.579,0.15,1.168,0.225,1.756,0.225c0.877,0,1.749-0.165,2.568-0.488c2.579-0.973,4.977-2.265,7.18-3.8
		c0.033,0.035,0.068,0.069,0.101,0.105c3.036,10.987,3.332,22.492,0.87,33.642c-13.35-15.054-32.701-23.991-53.216-23.991
		c-20.516,0-39.867,8.938-53.217,23.993c-2.444-11.118-2.139-22.648,0.883-33.629c0.034-0.037,0.069-0.073,0.103-0.109
		c2.187,1.523,4.568,2.805,7.126,3.774c0.831,0.334,1.716,0.504,2.607,0.504c0.588,0,1.179-0.074,1.758-0.225
		c17.843-4.629,30.306-20.75,30.306-39.204c0-6.382-1.525-12.742-4.41-18.394c-0.715-1.401-1.866-2.492-3.24-3.142
		c-2.375-1.234-4.901-2.17-7.505-2.796c6.581-6.909,15.746-10.889,25.589-10.889C123.973,19.211,133.137,23.19,139.72,30.099z
		 M17.525,19.974c8.595-2.485,19.64-2.201,30.565,0.984c7.892,2.302,15.105,5.964,20.767,10.437
		c-3.994,1.543-7.615,3.835-10.693,6.708c-4.724-0.283-9.538-1.13-14.337-2.529C32.901,32.387,23.435,26.689,17.525,19.974z
		 M165.456,187.95c-14.672,15.207-35.033,23.186-55.888,21.866c-37.554-2.36-66.971-33.72-66.971-71.393
		c0-7.184,1.108-14.254,3.184-21c0.718,6.55,2.196,13.044,4.463,19.347c9.508,26.44,31.423,46.279,58.694,53.172
		c1.725,0.609,3.578,0.609,5.194,0.609s3.469,0,5.194-0.609c27.271-6.893,49.186-26.731,58.694-53.172
		c2.278-6.335,3.769-12.837,4.489-19.385c1.382,4.5,2.338,9.151,2.808,13.905C187.373,152.086,180.134,172.738,165.456,187.95z
		 M184.438,35.574c-4.8,1.399-9.614,2.246-14.338,2.53c-3.077-2.873-6.699-5.165-10.693-6.708
		c5.661-4.473,12.875-8.135,20.767-10.437c10.926-3.187,21.97-3.47,30.564-0.984C204.83,26.689,195.364,32.387,184.438,35.574z"/>
	<circle cx="75.653" cy="59.335" r="7.902"/>
	<circle cx="152.612" cy="59.335" r="7.902"/>
	<circle cx="102.628" cy="138.625" r="7.902"/>
	<circle cx="125.637" cy="138.625" r="7.902"/>
</g>
<g>
</g>
<g>
</g>
<g>
</g>
<g>
</g>
<g>
</g>
<g>
</g>
<g>
</g>
<g>
</g>
<g>
</g>
<g>
</g>
<g>
</g>
<g>
</g>
<g>
</g>
<g>
</g>
<g>
</g>
</svg>
