<?xml version='1.0' encoding='iso-8859-1'?>
<!DOCTYPE svg PUBLIC '-//W3C//DTD SVG 1.1//EN' 'http://www.w3.org/Graphics/SVG/1.1/DTD/svg11.dtd'>
<svg version="1.1" xmlns="http://www.w3.org/2000/svg" viewBox="0 0 297 297" xmlns:xlink="http://www.w3.org/1999/xlink" enable-background="new 0 0 297 297">
  <g>
    <path d="m121.734,74.6c10.61,9.537 21.099,16.305 21.539,16.588 1.593,1.021 3.41,1.533 5.228,1.533 1.817,0 3.635-0.512 5.227-1.535 0.44-0.283 10.929-7.049 21.538-16.588 15.816-14.219 23.505-26.805 23.505-38.477 0-16.834-13.445-30.527-29.972-30.527-7.823,0-14.955,3.068-20.299,8.086-5.344-5.018-12.476-8.086-20.299-8.086-16.527,0-29.974,13.693-29.974,30.527 0.001,11.672 7.691,24.26 23.507,38.479zm6.468-49.659c5.858-3.55271e-15 10.625,5.016 10.625,11.18 0,5.342 4.331,9.674 9.674,9.674 5.343,0 9.674-4.332 9.674-9.674 0-6.164 4.767-11.18 10.625-11.18s10.624,5.016 10.624,11.18c0,9.375-16.929,25.211-30.929,35.23-13.998-10-30.918-25.822-30.918-35.23 0-6.164 4.766-11.18 10.625-11.18z"/>
    <path d="m287.326,179.043h-5.751v-36.08c0-22.937-18.66-41.598-41.598-41.598h-182.954c-22.938,0-41.598,18.66-41.598,41.598v36.08h-5.751c-5.343,0-9.674,4.332-9.674,9.674v61.183c0,5.342 4.331,9.674 9.674,9.674h5.752v22.158c0,5.344 4.331,9.674 9.674,9.674h30.85c5.342,0 9.674-4.33 9.674-9.674v-22.158h165.753v22.158c0,5.344 4.332,9.674 9.674,9.674h30.851c5.343,0 9.674-4.33 9.674-9.674v-22.158h5.751c5.343,0 9.674-4.332 9.674-9.674v-61.184c-0.001-5.341-4.332-9.673-9.675-9.673zm-241.05,93.016h-11.503v-11.508h11.503v11.508zm215.951,0h-11.503v-11.508h11.503v11.508zm-242.879-31.832v-41.836h258.305v41.836h-258.305zm144.697-61.184c0.438-4.158 2.284-8.346 5.544-12.748 10.951-3.02 22.004-4.547 32.898-4.547 10.894,0 21.946,1.527 32.897,4.547 3.26,4.402 5.105,8.59 5.544,12.748h-76.883zm-107.972,0c0.438-4.158 2.283-8.346 5.543-12.748 10.951-3.02 22.003-4.547 32.897-4.547 10.894,0 21.945,1.527 32.896,4.547 3.261,4.402 5.105,8.59 5.544,12.748h-76.88zm-21.3-36.08c0-12.27 9.98-22.25 22.25-22.25h182.954c12.27,0 22.25,9.98 22.25,22.25v36.08h-1.987c-0.481-9.283-4.393-18.539-11.757-27.377-1.215-1.459-2.833-2.527-4.652-3.072-13.697-4.111-27.607-6.193-41.344-6.193-13.737,0-27.648,2.082-41.345,6.193-1.819,0.545-3.438,1.613-4.652,3.072-3.397,4.078-6.059,8.244-7.991,12.463-1.932-4.219-4.593-8.385-7.99-12.463-1.215-1.459-2.833-2.527-4.652-3.072-13.696-4.111-27.606-6.193-41.343-6.193-13.737,0-27.647,2.082-41.344,6.193-1.819,0.545-3.438,1.613-4.652,3.072-7.363,8.838-11.275,18.094-11.757,27.377h-1.987v-36.08z"/>
  </g>
</svg>
